<mxfile host="app.diagrams.net" modified="2024-06-23T14:34:29.907Z" agent="Mozilla/5.0 (Windows NT 10.0; Win64; x64) AppleWebKit/537.36 (KHTML, like Gecko) Chrome/126.0.0.0 Safari/537.36" etag="Df6VytzPhSPOrdYpgIrd" version="24.6.2" type="device">
  <diagram name="Page-1" id="s7i_YZJ-R8-L34rMcF7E">
    <mxGraphModel dx="1677" dy="743" grid="1" gridSize="10" guides="1" tooltips="1" connect="1" arrows="1" fold="1" page="1" pageScale="1" pageWidth="850" pageHeight="1100" math="0" shadow="0">
      <root>
        <mxCell id="0" />
        <mxCell id="1" parent="0" />
        <mxCell id="CAw-P16dP3qLEn7cUK9S-3" value="" style="edgeStyle=orthogonalEdgeStyle;rounded=0;orthogonalLoop=1;jettySize=auto;html=1;" edge="1" parent="1" source="CAw-P16dP3qLEn7cUK9S-1" target="CAw-P16dP3qLEn7cUK9S-2">
          <mxGeometry relative="1" as="geometry" />
        </mxCell>
        <mxCell id="CAw-P16dP3qLEn7cUK9S-1" value="10" style="ellipse;whiteSpace=wrap;html=1;aspect=fixed;" vertex="1" parent="1">
          <mxGeometry x="120" y="310" width="80" height="80" as="geometry" />
        </mxCell>
        <mxCell id="CAw-P16dP3qLEn7cUK9S-5" value="" style="edgeStyle=orthogonalEdgeStyle;rounded=0;orthogonalLoop=1;jettySize=auto;html=1;entryX=0;entryY=0.5;entryDx=0;entryDy=0;" edge="1" parent="1" source="CAw-P16dP3qLEn7cUK9S-2" target="CAw-P16dP3qLEn7cUK9S-33">
          <mxGeometry relative="1" as="geometry" />
        </mxCell>
        <mxCell id="CAw-P16dP3qLEn7cUK9S-2" value="20" style="ellipse;whiteSpace=wrap;html=1;aspect=fixed;" vertex="1" parent="1">
          <mxGeometry x="280" y="310" width="80" height="80" as="geometry" />
        </mxCell>
        <mxCell id="CAw-P16dP3qLEn7cUK9S-7" value="" style="edgeStyle=orthogonalEdgeStyle;rounded=0;orthogonalLoop=1;jettySize=auto;html=1;" edge="1" parent="1" source="CAw-P16dP3qLEn7cUK9S-4" target="CAw-P16dP3qLEn7cUK9S-6">
          <mxGeometry relative="1" as="geometry" />
        </mxCell>
        <mxCell id="CAw-P16dP3qLEn7cUK9S-4" value="30" style="ellipse;whiteSpace=wrap;html=1;aspect=fixed;" vertex="1" parent="1">
          <mxGeometry x="440" y="310" width="80" height="80" as="geometry" />
        </mxCell>
        <mxCell id="CAw-P16dP3qLEn7cUK9S-38" value="" style="edgeStyle=orthogonalEdgeStyle;rounded=0;orthogonalLoop=1;jettySize=auto;html=1;" edge="1" parent="1" source="CAw-P16dP3qLEn7cUK9S-6" target="CAw-P16dP3qLEn7cUK9S-37">
          <mxGeometry relative="1" as="geometry" />
        </mxCell>
        <mxCell id="CAw-P16dP3qLEn7cUK9S-6" value="40" style="ellipse;whiteSpace=wrap;html=1;aspect=fixed;" vertex="1" parent="1">
          <mxGeometry x="600" y="310" width="80" height="80" as="geometry" />
        </mxCell>
        <mxCell id="CAw-P16dP3qLEn7cUK9S-8" value="0" style="text;html=1;align=center;verticalAlign=middle;resizable=0;points=[];autosize=1;strokeColor=none;fillColor=none;" vertex="1" parent="1">
          <mxGeometry x="145" y="388" width="30" height="30" as="geometry" />
        </mxCell>
        <mxCell id="CAw-P16dP3qLEn7cUK9S-9" value="1" style="text;html=1;align=center;verticalAlign=middle;resizable=0;points=[];autosize=1;strokeColor=none;fillColor=none;" vertex="1" parent="1">
          <mxGeometry x="305" y="388" width="30" height="30" as="geometry" />
        </mxCell>
        <mxCell id="CAw-P16dP3qLEn7cUK9S-10" value="2" style="text;html=1;align=center;verticalAlign=middle;resizable=0;points=[];autosize=1;strokeColor=none;fillColor=none;" vertex="1" parent="1">
          <mxGeometry x="390" y="280" width="30" height="30" as="geometry" />
        </mxCell>
        <mxCell id="CAw-P16dP3qLEn7cUK9S-11" value="3" style="text;html=1;align=center;verticalAlign=middle;resizable=0;points=[];autosize=1;strokeColor=none;fillColor=none;" vertex="1" parent="1">
          <mxGeometry x="460" y="388" width="30" height="30" as="geometry" />
        </mxCell>
        <mxCell id="CAw-P16dP3qLEn7cUK9S-12" value="addAt(2,100)" style="text;html=1;align=center;verticalAlign=middle;resizable=0;points=[];autosize=1;strokeColor=none;fillColor=none;" vertex="1" parent="1">
          <mxGeometry x="350" y="440" width="90" height="30" as="geometry" />
        </mxCell>
        <mxCell id="CAw-P16dP3qLEn7cUK9S-13" value="" style="edgeStyle=orthogonalEdgeStyle;rounded=0;orthogonalLoop=1;jettySize=auto;html=1;" edge="1" parent="1" source="CAw-P16dP3qLEn7cUK9S-14" target="CAw-P16dP3qLEn7cUK9S-16">
          <mxGeometry relative="1" as="geometry" />
        </mxCell>
        <mxCell id="CAw-P16dP3qLEn7cUK9S-14" value="10" style="ellipse;whiteSpace=wrap;html=1;aspect=fixed;" vertex="1" parent="1">
          <mxGeometry x="1830" y="600" width="80" height="80" as="geometry" />
        </mxCell>
        <mxCell id="CAw-P16dP3qLEn7cUK9S-48" value="" style="edgeStyle=orthogonalEdgeStyle;rounded=0;orthogonalLoop=1;jettySize=auto;html=1;entryX=0.5;entryY=0;entryDx=0;entryDy=0;" edge="1" parent="1" source="CAw-P16dP3qLEn7cUK9S-16" target="CAw-P16dP3qLEn7cUK9S-18">
          <mxGeometry relative="1" as="geometry">
            <Array as="points">
              <mxPoint x="1990" y="580" />
              <mxPoint x="2250" y="580" />
            </Array>
          </mxGeometry>
        </mxCell>
        <mxCell id="CAw-P16dP3qLEn7cUK9S-16" value="20" style="ellipse;whiteSpace=wrap;html=1;aspect=fixed;" vertex="1" parent="1">
          <mxGeometry x="1950" y="600" width="80" height="80" as="geometry" />
        </mxCell>
        <mxCell id="CAw-P16dP3qLEn7cUK9S-17" value="" style="edgeStyle=orthogonalEdgeStyle;rounded=0;orthogonalLoop=1;jettySize=auto;html=1;" edge="1" parent="1" source="CAw-P16dP3qLEn7cUK9S-18" target="CAw-P16dP3qLEn7cUK9S-19">
          <mxGeometry relative="1" as="geometry" />
        </mxCell>
        <mxCell id="CAw-P16dP3qLEn7cUK9S-18" value="30" style="ellipse;whiteSpace=wrap;html=1;aspect=fixed;" vertex="1" parent="1">
          <mxGeometry x="2210" y="600" width="80" height="80" as="geometry" />
        </mxCell>
        <mxCell id="CAw-P16dP3qLEn7cUK9S-50" value="" style="edgeStyle=orthogonalEdgeStyle;rounded=0;orthogonalLoop=1;jettySize=auto;html=1;" edge="1" parent="1" source="CAw-P16dP3qLEn7cUK9S-19" target="CAw-P16dP3qLEn7cUK9S-49">
          <mxGeometry relative="1" as="geometry" />
        </mxCell>
        <mxCell id="CAw-P16dP3qLEn7cUK9S-19" value="40" style="ellipse;whiteSpace=wrap;html=1;aspect=fixed;" vertex="1" parent="1">
          <mxGeometry x="2330" y="600" width="80" height="80" as="geometry" />
        </mxCell>
        <mxCell id="CAw-P16dP3qLEn7cUK9S-20" value="0" style="text;html=1;align=center;verticalAlign=middle;resizable=0;points=[];autosize=1;strokeColor=none;fillColor=none;" vertex="1" parent="1">
          <mxGeometry x="1855" y="678" width="30" height="30" as="geometry" />
        </mxCell>
        <mxCell id="CAw-P16dP3qLEn7cUK9S-21" value="1" style="text;html=1;align=center;verticalAlign=middle;resizable=0;points=[];autosize=1;strokeColor=none;fillColor=none;" vertex="1" parent="1">
          <mxGeometry x="1975" y="678" width="30" height="30" as="geometry" />
        </mxCell>
        <mxCell id="CAw-P16dP3qLEn7cUK9S-22" value="2" style="text;html=1;align=center;verticalAlign=middle;resizable=0;points=[];autosize=1;strokeColor=none;fillColor=none;" vertex="1" parent="1">
          <mxGeometry x="2110" y="678" width="30" height="30" as="geometry" />
        </mxCell>
        <mxCell id="CAw-P16dP3qLEn7cUK9S-23" value="3" style="text;html=1;align=center;verticalAlign=middle;resizable=0;points=[];autosize=1;strokeColor=none;fillColor=none;" vertex="1" parent="1">
          <mxGeometry x="2235" y="678" width="30" height="30" as="geometry" />
        </mxCell>
        <mxCell id="CAw-P16dP3qLEn7cUK9S-26" value="" style="edgeStyle=orthogonalEdgeStyle;rounded=0;orthogonalLoop=1;jettySize=auto;html=1;" edge="1" parent="1" source="CAw-P16dP3qLEn7cUK9S-24" target="CAw-P16dP3qLEn7cUK9S-18">
          <mxGeometry relative="1" as="geometry" />
        </mxCell>
        <mxCell id="CAw-P16dP3qLEn7cUK9S-24" value="100" style="ellipse;whiteSpace=wrap;html=1;aspect=fixed;" vertex="1" parent="1">
          <mxGeometry x="2085" y="600" width="80" height="80" as="geometry" />
        </mxCell>
        <mxCell id="CAw-P16dP3qLEn7cUK9S-28" value="removeAt(2) : number" style="text;html=1;align=center;verticalAlign=middle;resizable=0;points=[];autosize=1;strokeColor=none;fillColor=none;" vertex="1" parent="1">
          <mxGeometry x="2065" y="730" width="140" height="30" as="geometry" />
        </mxCell>
        <mxCell id="CAw-P16dP3qLEn7cUK9S-29" value="" style="edgeStyle=none;orthogonalLoop=1;jettySize=auto;html=1;shape=flexArrow;rounded=1;startSize=8;endSize=8;" edge="1" parent="1">
          <mxGeometry width="100" relative="1" as="geometry">
            <mxPoint x="500" y="250" as="sourcePoint" />
            <mxPoint x="500" y="310" as="targetPoint" />
            <Array as="points" />
          </mxGeometry>
        </mxCell>
        <mxCell id="CAw-P16dP3qLEn7cUK9S-30" value="Temp" style="edgeLabel;html=1;align=center;verticalAlign=middle;resizable=0;points=[];" vertex="1" connectable="0" parent="CAw-P16dP3qLEn7cUK9S-29">
          <mxGeometry x="-0.2889" y="-2" relative="1" as="geometry">
            <mxPoint as="offset" />
          </mxGeometry>
        </mxCell>
        <mxCell id="CAw-P16dP3qLEn7cUK9S-32" value="1. Temp -&amp;gt; idx-1&lt;div&gt;2. New node create&lt;/div&gt;&lt;div&gt;3. NN.next = temp.next&lt;/div&gt;&lt;div&gt;4. temp.next = NN&lt;/div&gt;" style="text;html=1;align=center;verticalAlign=middle;resizable=0;points=[];autosize=1;strokeColor=none;fillColor=none;" vertex="1" parent="1">
          <mxGeometry x="550" y="180" width="150" height="70" as="geometry" />
        </mxCell>
        <mxCell id="CAw-P16dP3qLEn7cUK9S-36" value="" style="edgeStyle=orthogonalEdgeStyle;rounded=0;orthogonalLoop=1;jettySize=auto;html=1;" edge="1" parent="1" source="CAw-P16dP3qLEn7cUK9S-33" target="CAw-P16dP3qLEn7cUK9S-35">
          <mxGeometry relative="1" as="geometry" />
        </mxCell>
        <mxCell id="CAw-P16dP3qLEn7cUK9S-33" value="100" style="ellipse;whiteSpace=wrap;html=1;aspect=fixed;" vertex="1" parent="1">
          <mxGeometry x="370" y="200" width="80" height="80" as="geometry" />
        </mxCell>
        <mxCell id="CAw-P16dP3qLEn7cUK9S-35" value="" style="shape=waypoint;sketch=0;size=6;pointerEvents=1;points=[];fillColor=default;resizable=0;rotatable=0;perimeter=centerPerimeter;snapToPoint=1;" vertex="1" parent="1">
          <mxGeometry x="470" y="300" width="20" height="20" as="geometry" />
        </mxCell>
        <mxCell id="CAw-P16dP3qLEn7cUK9S-37" value="" style="shape=waypoint;sketch=0;size=6;pointerEvents=1;points=[];fillColor=default;resizable=0;rotatable=0;perimeter=centerPerimeter;snapToPoint=1;" vertex="1" parent="1">
          <mxGeometry x="710" y="340" width="20" height="20" as="geometry" />
        </mxCell>
        <mxCell id="CAw-P16dP3qLEn7cUK9S-40" value="NN" style="text;html=1;align=center;verticalAlign=middle;resizable=0;points=[];autosize=1;strokeColor=none;fillColor=none;" vertex="1" parent="1">
          <mxGeometry x="390" y="168" width="40" height="30" as="geometry" />
        </mxCell>
        <mxCell id="CAw-P16dP3qLEn7cUK9S-41" value="4" style="text;html=1;align=center;verticalAlign=middle;resizable=0;points=[];autosize=1;strokeColor=none;fillColor=none;" vertex="1" parent="1">
          <mxGeometry x="625" y="388" width="30" height="30" as="geometry" />
        </mxCell>
        <mxCell id="CAw-P16dP3qLEn7cUK9S-42" value="5" style="text;html=1;align=center;verticalAlign=middle;resizable=0;points=[];autosize=1;strokeColor=none;fillColor=none;" vertex="1" parent="1">
          <mxGeometry x="715" y="388" width="30" height="30" as="geometry" />
        </mxCell>
        <mxCell id="CAw-P16dP3qLEn7cUK9S-45" value="" style="shape=flexArrow;endArrow=classic;html=1;rounded=0;" edge="1" parent="1">
          <mxGeometry width="50" height="50" relative="1" as="geometry">
            <mxPoint x="1790.0000000000002" y="550" as="sourcePoint" />
            <mxPoint x="1790.0000000000002" y="600" as="targetPoint" />
            <Array as="points">
              <mxPoint x="1790.0000000000002" y="560" />
            </Array>
          </mxGeometry>
        </mxCell>
        <mxCell id="CAw-P16dP3qLEn7cUK9S-46" value="temp" style="edgeLabel;html=1;align=center;verticalAlign=middle;resizable=0;points=[];" vertex="1" connectable="0" parent="CAw-P16dP3qLEn7cUK9S-45">
          <mxGeometry x="-0.3371" y="1" relative="1" as="geometry">
            <mxPoint x="-1" as="offset" />
          </mxGeometry>
        </mxCell>
        <mxCell id="CAw-P16dP3qLEn7cUK9S-47" value="temp = idx-1&lt;div&gt;retVal = temp.next.val (100)&lt;/div&gt;&lt;div&gt;temp.next = temp.next.next.next.next&lt;/div&gt;" style="text;html=1;align=center;verticalAlign=middle;resizable=0;points=[];autosize=1;strokeColor=none;fillColor=none;" vertex="1" parent="1">
          <mxGeometry x="1790" y="740" width="220" height="60" as="geometry" />
        </mxCell>
        <mxCell id="CAw-P16dP3qLEn7cUK9S-49" value="" style="shape=waypoint;sketch=0;size=6;pointerEvents=1;points=[];fillColor=default;resizable=0;rotatable=0;perimeter=centerPerimeter;snapToPoint=1;" vertex="1" parent="1">
          <mxGeometry x="2450" y="630" width="20" height="20" as="geometry" />
        </mxCell>
        <mxCell id="CAw-P16dP3qLEn7cUK9S-52" value="4" style="text;html=1;align=center;verticalAlign=middle;resizable=0;points=[];autosize=1;strokeColor=none;fillColor=none;" vertex="1" parent="1">
          <mxGeometry x="2355" y="678" width="30" height="30" as="geometry" />
        </mxCell>
        <mxCell id="CAw-P16dP3qLEn7cUK9S-53" value="5" style="text;html=1;align=center;verticalAlign=middle;resizable=0;points=[];autosize=1;strokeColor=none;fillColor=none;" vertex="1" parent="1">
          <mxGeometry x="2445" y="678" width="30" height="30" as="geometry" />
        </mxCell>
        <mxCell id="CAw-P16dP3qLEn7cUK9S-74" style="edgeStyle=orthogonalEdgeStyle;rounded=0;orthogonalLoop=1;jettySize=auto;html=1;" edge="1" parent="1" source="CAw-P16dP3qLEn7cUK9S-54">
          <mxGeometry relative="1" as="geometry">
            <mxPoint x="1670" y="1140" as="targetPoint" />
          </mxGeometry>
        </mxCell>
        <mxCell id="CAw-P16dP3qLEn7cUK9S-54" value="10" style="ellipse;whiteSpace=wrap;html=1;aspect=fixed;" vertex="1" parent="1">
          <mxGeometry x="1730" y="1100" width="80" height="80" as="geometry" />
        </mxCell>
        <mxCell id="CAw-P16dP3qLEn7cUK9S-75" value="" style="edgeStyle=orthogonalEdgeStyle;rounded=0;orthogonalLoop=1;jettySize=auto;html=1;" edge="1" parent="1" source="CAw-P16dP3qLEn7cUK9S-55" target="CAw-P16dP3qLEn7cUK9S-54">
          <mxGeometry relative="1" as="geometry" />
        </mxCell>
        <mxCell id="CAw-P16dP3qLEn7cUK9S-55" value="20" style="ellipse;whiteSpace=wrap;html=1;aspect=fixed;" vertex="1" parent="1">
          <mxGeometry x="1890" y="1100" width="80" height="80" as="geometry" />
        </mxCell>
        <mxCell id="CAw-P16dP3qLEn7cUK9S-76" value="" style="edgeStyle=orthogonalEdgeStyle;rounded=0;orthogonalLoop=1;jettySize=auto;html=1;" edge="1" parent="1" source="CAw-P16dP3qLEn7cUK9S-57" target="CAw-P16dP3qLEn7cUK9S-55">
          <mxGeometry relative="1" as="geometry" />
        </mxCell>
        <mxCell id="CAw-P16dP3qLEn7cUK9S-57" value="30" style="ellipse;whiteSpace=wrap;html=1;aspect=fixed;" vertex="1" parent="1">
          <mxGeometry x="2050" y="1100" width="80" height="80" as="geometry" />
        </mxCell>
        <mxCell id="CAw-P16dP3qLEn7cUK9S-77" value="" style="edgeStyle=orthogonalEdgeStyle;rounded=0;orthogonalLoop=1;jettySize=auto;html=1;" edge="1" parent="1" source="CAw-P16dP3qLEn7cUK9S-59" target="CAw-P16dP3qLEn7cUK9S-57">
          <mxGeometry relative="1" as="geometry" />
        </mxCell>
        <mxCell id="CAw-P16dP3qLEn7cUK9S-59" value="40" style="ellipse;whiteSpace=wrap;html=1;aspect=fixed;" vertex="1" parent="1">
          <mxGeometry x="2210" y="1100" width="80" height="80" as="geometry" />
        </mxCell>
        <mxCell id="CAw-P16dP3qLEn7cUK9S-78" value="" style="edgeStyle=orthogonalEdgeStyle;rounded=0;orthogonalLoop=1;jettySize=auto;html=1;" edge="1" parent="1" source="CAw-P16dP3qLEn7cUK9S-61" target="CAw-P16dP3qLEn7cUK9S-59">
          <mxGeometry relative="1" as="geometry" />
        </mxCell>
        <mxCell id="CAw-P16dP3qLEn7cUK9S-61" value="50" style="ellipse;whiteSpace=wrap;html=1;aspect=fixed;" vertex="1" parent="1">
          <mxGeometry x="2370" y="1100" width="80" height="80" as="geometry" />
        </mxCell>
        <mxCell id="CAw-P16dP3qLEn7cUK9S-65" value="Head" style="shape=singleArrow;whiteSpace=wrap;html=1;arrowWidth=0.4;arrowSize=0.4;rotation=-90;" vertex="1" parent="1">
          <mxGeometry x="2370" y="1200" width="80" height="60" as="geometry" />
        </mxCell>
        <mxCell id="CAw-P16dP3qLEn7cUK9S-67" value="Curr" style="edgeStyle=none;orthogonalLoop=1;jettySize=auto;html=1;shape=flexArrow;rounded=1;startSize=8;endSize=8;" edge="1" parent="1">
          <mxGeometry width="100" relative="1" as="geometry">
            <mxPoint x="2480" y="1030" as="sourcePoint" />
            <mxPoint x="2480" y="1100" as="targetPoint" />
            <Array as="points" />
          </mxGeometry>
        </mxCell>
        <mxCell id="CAw-P16dP3qLEn7cUK9S-69" value="Prev" style="edgeStyle=none;orthogonalLoop=1;jettySize=auto;html=1;shape=flexArrow;rounded=1;startSize=8;endSize=8;" edge="1" parent="1">
          <mxGeometry width="100" relative="1" as="geometry">
            <mxPoint x="2410" y="1030" as="sourcePoint" />
            <mxPoint x="2410" y="1100" as="targetPoint" />
            <Array as="points" />
          </mxGeometry>
        </mxCell>
        <mxCell id="CAw-P16dP3qLEn7cUK9S-70" value="Next" style="edgeStyle=none;orthogonalLoop=1;jettySize=auto;html=1;shape=flexArrow;rounded=1;startSize=8;endSize=8;" edge="1" parent="1">
          <mxGeometry width="100" relative="1" as="geometry">
            <mxPoint x="2550" y="1030" as="sourcePoint" />
            <mxPoint x="2550" y="1100" as="targetPoint" />
            <Array as="points" />
          </mxGeometry>
        </mxCell>
        <mxCell id="CAw-P16dP3qLEn7cUK9S-71" value="prev = null&lt;div&gt;curr = head&lt;/div&gt;&lt;div&gt;next = head.next&lt;/div&gt;&lt;div&gt;While(curr != null){&lt;/div&gt;&lt;div&gt;curr.next = prev&lt;/div&gt;&lt;div&gt;prev = curr&lt;/div&gt;&lt;div&gt;curr = next&lt;/div&gt;&lt;div&gt;if(next != null){&lt;/div&gt;&lt;div&gt;next = next.next&lt;br&gt;&lt;/div&gt;&lt;div&gt;}&lt;/div&gt;&lt;div&gt;&lt;br&gt;&lt;/div&gt;&lt;div&gt;}&lt;/div&gt;&lt;div&gt;head = prev&lt;/div&gt;" style="text;html=1;align=center;verticalAlign=middle;resizable=0;points=[];autosize=1;strokeColor=none;fillColor=none;" vertex="1" parent="1">
          <mxGeometry x="2110" y="1170" width="120" height="200" as="geometry" />
        </mxCell>
        <mxCell id="CAw-P16dP3qLEn7cUK9S-81" value="" style="edgeStyle=orthogonalEdgeStyle;rounded=0;orthogonalLoop=1;jettySize=auto;html=1;" edge="1" parent="1" source="CAw-P16dP3qLEn7cUK9S-79" target="CAw-P16dP3qLEn7cUK9S-80">
          <mxGeometry relative="1" as="geometry" />
        </mxCell>
        <mxCell id="CAw-P16dP3qLEn7cUK9S-79" value="10" style="ellipse;whiteSpace=wrap;html=1;aspect=fixed;" vertex="1" parent="1">
          <mxGeometry x="1930" y="1600" width="80" height="80" as="geometry" />
        </mxCell>
        <mxCell id="CAw-P16dP3qLEn7cUK9S-83" value="" style="edgeStyle=orthogonalEdgeStyle;rounded=0;orthogonalLoop=1;jettySize=auto;html=1;" edge="1" parent="1" source="CAw-P16dP3qLEn7cUK9S-80" target="CAw-P16dP3qLEn7cUK9S-82">
          <mxGeometry relative="1" as="geometry" />
        </mxCell>
        <mxCell id="CAw-P16dP3qLEn7cUK9S-80" value="20" style="ellipse;whiteSpace=wrap;html=1;aspect=fixed;" vertex="1" parent="1">
          <mxGeometry x="2090" y="1600" width="80" height="80" as="geometry" />
        </mxCell>
        <mxCell id="CAw-P16dP3qLEn7cUK9S-85" value="" style="edgeStyle=orthogonalEdgeStyle;rounded=0;orthogonalLoop=1;jettySize=auto;html=1;" edge="1" parent="1" source="CAw-P16dP3qLEn7cUK9S-82" target="CAw-P16dP3qLEn7cUK9S-84">
          <mxGeometry relative="1" as="geometry" />
        </mxCell>
        <mxCell id="CAw-P16dP3qLEn7cUK9S-82" value="33" style="ellipse;whiteSpace=wrap;html=1;aspect=fixed;" vertex="1" parent="1">
          <mxGeometry x="2235" y="1600" width="80" height="80" as="geometry" />
        </mxCell>
        <mxCell id="CAw-P16dP3qLEn7cUK9S-87" value="" style="edgeStyle=orthogonalEdgeStyle;rounded=0;orthogonalLoop=1;jettySize=auto;html=1;" edge="1" parent="1" source="CAw-P16dP3qLEn7cUK9S-84" target="CAw-P16dP3qLEn7cUK9S-86">
          <mxGeometry relative="1" as="geometry" />
        </mxCell>
        <mxCell id="CAw-P16dP3qLEn7cUK9S-84" value="44" style="ellipse;whiteSpace=wrap;html=1;aspect=fixed;" vertex="1" parent="1">
          <mxGeometry x="2410" y="1600" width="80" height="80" as="geometry" />
        </mxCell>
        <mxCell id="CAw-P16dP3qLEn7cUK9S-89" value="" style="edgeStyle=orthogonalEdgeStyle;rounded=0;orthogonalLoop=1;jettySize=auto;html=1;" edge="1" parent="1" source="CAw-P16dP3qLEn7cUK9S-86" target="CAw-P16dP3qLEn7cUK9S-88">
          <mxGeometry relative="1" as="geometry" />
        </mxCell>
        <mxCell id="CAw-P16dP3qLEn7cUK9S-86" value="55" style="ellipse;whiteSpace=wrap;html=1;aspect=fixed;" vertex="1" parent="1">
          <mxGeometry x="2570" y="1600" width="80" height="80" as="geometry" />
        </mxCell>
        <mxCell id="CAw-P16dP3qLEn7cUK9S-91" value="" style="edgeStyle=orthogonalEdgeStyle;rounded=0;orthogonalLoop=1;jettySize=auto;html=1;" edge="1" parent="1" source="CAw-P16dP3qLEn7cUK9S-88" target="CAw-P16dP3qLEn7cUK9S-90">
          <mxGeometry relative="1" as="geometry" />
        </mxCell>
        <mxCell id="CAw-P16dP3qLEn7cUK9S-88" value="66" style="ellipse;whiteSpace=wrap;html=1;aspect=fixed;" vertex="1" parent="1">
          <mxGeometry x="2730" y="1600" width="80" height="80" as="geometry" />
        </mxCell>
        <mxCell id="CAw-P16dP3qLEn7cUK9S-90" value="77" style="ellipse;whiteSpace=wrap;html=1;aspect=fixed;" vertex="1" parent="1">
          <mxGeometry x="2890" y="1600" width="80" height="80" as="geometry" />
        </mxCell>
        <mxCell id="CAw-P16dP3qLEn7cUK9S-92" value="Middle Node" style="text;html=1;align=center;verticalAlign=middle;resizable=0;points=[];autosize=1;strokeColor=none;fillColor=none;" vertex="1" parent="1">
          <mxGeometry x="2385" y="1500" width="90" height="30" as="geometry" />
        </mxCell>
        <mxCell id="CAw-P16dP3qLEn7cUK9S-93" value="" style="shape=flexArrow;endArrow=classic;html=1;rounded=0;entryX=0.424;entryY=1.025;entryDx=0;entryDy=0;entryPerimeter=0;width=35.862068965517246;endSize=8.26896551724138;" edge="1" parent="1">
          <mxGeometry width="50" height="50" relative="1" as="geometry">
            <mxPoint x="1969.74" y="1768" as="sourcePoint" />
            <mxPoint x="1969.6600000000005" y="1690" as="targetPoint" />
          </mxGeometry>
        </mxCell>
        <mxCell id="CAw-P16dP3qLEn7cUK9S-94" value="Head" style="edgeLabel;html=1;align=center;verticalAlign=middle;resizable=0;points=[];" vertex="1" connectable="0" parent="CAw-P16dP3qLEn7cUK9S-93">
          <mxGeometry x="-0.6799" y="1" relative="1" as="geometry">
            <mxPoint as="offset" />
          </mxGeometry>
        </mxCell>
        <mxCell id="CAw-P16dP3qLEn7cUK9S-95" value="Totoise and hare technique" style="text;html=1;align=center;verticalAlign=middle;whiteSpace=wrap;rounded=0;" vertex="1" parent="1">
          <mxGeometry x="2510" y="1465" width="160" height="100" as="geometry" />
        </mxCell>
        <mxCell id="CAw-P16dP3qLEn7cUK9S-96" value="" style="shape=flexArrow;endArrow=classic;html=1;rounded=0;endWidth=28.96551724137931;endSize=6.06896551724138;width=30.344827586206897;" edge="1" parent="1">
          <mxGeometry width="50" height="50" relative="1" as="geometry">
            <mxPoint x="2450" y="1760" as="sourcePoint" />
            <mxPoint x="2450" y="1690" as="targetPoint" />
          </mxGeometry>
        </mxCell>
        <mxCell id="CAw-P16dP3qLEn7cUK9S-97" value="Slow" style="edgeLabel;html=1;align=center;verticalAlign=middle;resizable=0;points=[];" vertex="1" connectable="0" parent="CAw-P16dP3qLEn7cUK9S-96">
          <mxGeometry x="-0.7222" y="3" relative="1" as="geometry">
            <mxPoint as="offset" />
          </mxGeometry>
        </mxCell>
        <mxCell id="CAw-P16dP3qLEn7cUK9S-98" value="" style="shape=flexArrow;endArrow=classic;html=1;rounded=0;endWidth=28.96551724137931;endSize=6.06896551724138;width=30.344827586206897;" edge="1" parent="1">
          <mxGeometry width="50" height="50" relative="1" as="geometry">
            <mxPoint x="2930" y="1538.620689655172" as="sourcePoint" />
            <mxPoint x="2930" y="1600" as="targetPoint" />
          </mxGeometry>
        </mxCell>
        <mxCell id="CAw-P16dP3qLEn7cUK9S-99" value="Fast" style="edgeLabel;html=1;align=center;verticalAlign=middle;resizable=0;points=[];" vertex="1" connectable="0" parent="CAw-P16dP3qLEn7cUK9S-98">
          <mxGeometry x="-0.7222" y="3" relative="1" as="geometry">
            <mxPoint as="offset" />
          </mxGeometry>
        </mxCell>
        <mxCell id="CAw-P16dP3qLEn7cUK9S-100" value="If fast.next == null -&amp;gt; odd" style="text;html=1;align=center;verticalAlign=middle;resizable=0;points=[];autosize=1;strokeColor=none;fillColor=none;" vertex="1" parent="1">
          <mxGeometry x="2770" y="1720" width="160" height="30" as="geometry" />
        </mxCell>
        <mxCell id="CAw-P16dP3qLEn7cUK9S-101" value="" style="edgeStyle=orthogonalEdgeStyle;rounded=0;orthogonalLoop=1;jettySize=auto;html=1;" edge="1" parent="1" source="CAw-P16dP3qLEn7cUK9S-102" target="CAw-P16dP3qLEn7cUK9S-104">
          <mxGeometry relative="1" as="geometry" />
        </mxCell>
        <mxCell id="CAw-P16dP3qLEn7cUK9S-102" value="10" style="ellipse;whiteSpace=wrap;html=1;aspect=fixed;" vertex="1" parent="1">
          <mxGeometry x="1940" y="1930" width="80" height="80" as="geometry" />
        </mxCell>
        <mxCell id="CAw-P16dP3qLEn7cUK9S-103" value="" style="edgeStyle=orthogonalEdgeStyle;rounded=0;orthogonalLoop=1;jettySize=auto;html=1;" edge="1" parent="1" source="CAw-P16dP3qLEn7cUK9S-104" target="CAw-P16dP3qLEn7cUK9S-106">
          <mxGeometry relative="1" as="geometry" />
        </mxCell>
        <mxCell id="CAw-P16dP3qLEn7cUK9S-104" value="20" style="ellipse;whiteSpace=wrap;html=1;aspect=fixed;" vertex="1" parent="1">
          <mxGeometry x="2100" y="1930" width="80" height="80" as="geometry" />
        </mxCell>
        <mxCell id="CAw-P16dP3qLEn7cUK9S-105" value="" style="edgeStyle=orthogonalEdgeStyle;rounded=0;orthogonalLoop=1;jettySize=auto;html=1;" edge="1" parent="1" source="CAw-P16dP3qLEn7cUK9S-106" target="CAw-P16dP3qLEn7cUK9S-108">
          <mxGeometry relative="1" as="geometry" />
        </mxCell>
        <mxCell id="CAw-P16dP3qLEn7cUK9S-106" value="33" style="ellipse;whiteSpace=wrap;html=1;aspect=fixed;" vertex="1" parent="1">
          <mxGeometry x="2245" y="1930" width="80" height="80" as="geometry" />
        </mxCell>
        <mxCell id="CAw-P16dP3qLEn7cUK9S-107" value="" style="edgeStyle=orthogonalEdgeStyle;rounded=0;orthogonalLoop=1;jettySize=auto;html=1;" edge="1" parent="1" source="CAw-P16dP3qLEn7cUK9S-108" target="CAw-P16dP3qLEn7cUK9S-110">
          <mxGeometry relative="1" as="geometry" />
        </mxCell>
        <mxCell id="CAw-P16dP3qLEn7cUK9S-108" value="44" style="ellipse;whiteSpace=wrap;html=1;aspect=fixed;" vertex="1" parent="1">
          <mxGeometry x="2420" y="1930" width="80" height="80" as="geometry" />
        </mxCell>
        <mxCell id="CAw-P16dP3qLEn7cUK9S-109" value="" style="edgeStyle=orthogonalEdgeStyle;rounded=0;orthogonalLoop=1;jettySize=auto;html=1;" edge="1" parent="1" source="CAw-P16dP3qLEn7cUK9S-110" target="CAw-P16dP3qLEn7cUK9S-112">
          <mxGeometry relative="1" as="geometry" />
        </mxCell>
        <mxCell id="CAw-P16dP3qLEn7cUK9S-110" value="55" style="ellipse;whiteSpace=wrap;html=1;aspect=fixed;" vertex="1" parent="1">
          <mxGeometry x="2580" y="1930" width="80" height="80" as="geometry" />
        </mxCell>
        <mxCell id="CAw-P16dP3qLEn7cUK9S-112" value="66" style="ellipse;whiteSpace=wrap;html=1;aspect=fixed;" vertex="1" parent="1">
          <mxGeometry x="2740" y="1930" width="80" height="80" as="geometry" />
        </mxCell>
        <mxCell id="CAw-P16dP3qLEn7cUK9S-114" value="" style="shape=flexArrow;endArrow=classic;html=1;rounded=0;endWidth=28.96551724137931;endSize=6.06896551724138;width=30.344827586206897;" edge="1" parent="1">
          <mxGeometry width="50" height="50" relative="1" as="geometry">
            <mxPoint x="2459.66" y="2070" as="sourcePoint" />
            <mxPoint x="2459.66" y="2000" as="targetPoint" />
          </mxGeometry>
        </mxCell>
        <mxCell id="CAw-P16dP3qLEn7cUK9S-115" value="Slow" style="edgeLabel;html=1;align=center;verticalAlign=middle;resizable=0;points=[];" vertex="1" connectable="0" parent="CAw-P16dP3qLEn7cUK9S-114">
          <mxGeometry x="-0.7222" y="3" relative="1" as="geometry">
            <mxPoint as="offset" />
          </mxGeometry>
        </mxCell>
        <mxCell id="CAw-P16dP3qLEn7cUK9S-119" value="" style="shape=flexArrow;endArrow=classic;html=1;rounded=0;endWidth=28.96551724137931;endSize=6.06896551724138;width=30.344827586206897;" edge="1" parent="1">
          <mxGeometry width="50" height="50" relative="1" as="geometry">
            <mxPoint x="2974" y="1860.0006896551722" as="sourcePoint" />
            <mxPoint x="2974" y="1921.38" as="targetPoint" />
          </mxGeometry>
        </mxCell>
        <mxCell id="CAw-P16dP3qLEn7cUK9S-120" value="Fast" style="edgeLabel;html=1;align=center;verticalAlign=middle;resizable=0;points=[];" vertex="1" connectable="0" parent="CAw-P16dP3qLEn7cUK9S-119">
          <mxGeometry x="-0.7222" y="3" relative="1" as="geometry">
            <mxPoint as="offset" />
          </mxGeometry>
        </mxCell>
        <mxCell id="CAw-P16dP3qLEn7cUK9S-121" value="fast == null" style="text;html=1;align=center;verticalAlign=middle;resizable=0;points=[];autosize=1;strokeColor=none;fillColor=none;" vertex="1" parent="1">
          <mxGeometry x="2820" y="2050" width="80" height="30" as="geometry" />
        </mxCell>
        <mxCell id="CAw-P16dP3qLEn7cUK9S-123" value="" style="edgeStyle=orthogonalEdgeStyle;rounded=0;orthogonalLoop=1;jettySize=auto;html=1;" edge="1" parent="1" source="CAw-P16dP3qLEn7cUK9S-124" target="CAw-P16dP3qLEn7cUK9S-126">
          <mxGeometry relative="1" as="geometry" />
        </mxCell>
        <mxCell id="CAw-P16dP3qLEn7cUK9S-124" value="10" style="ellipse;whiteSpace=wrap;html=1;aspect=fixed;" vertex="1" parent="1">
          <mxGeometry x="1970" y="2330" width="80" height="80" as="geometry" />
        </mxCell>
        <mxCell id="CAw-P16dP3qLEn7cUK9S-125" value="" style="edgeStyle=orthogonalEdgeStyle;rounded=0;orthogonalLoop=1;jettySize=auto;html=1;" edge="1" parent="1" source="CAw-P16dP3qLEn7cUK9S-126" target="CAw-P16dP3qLEn7cUK9S-128">
          <mxGeometry relative="1" as="geometry" />
        </mxCell>
        <mxCell id="CAw-P16dP3qLEn7cUK9S-126" value="20" style="ellipse;whiteSpace=wrap;html=1;aspect=fixed;" vertex="1" parent="1">
          <mxGeometry x="2130" y="2330" width="80" height="80" as="geometry" />
        </mxCell>
        <mxCell id="CAw-P16dP3qLEn7cUK9S-127" value="" style="edgeStyle=orthogonalEdgeStyle;rounded=0;orthogonalLoop=1;jettySize=auto;html=1;" edge="1" parent="1" source="CAw-P16dP3qLEn7cUK9S-128" target="CAw-P16dP3qLEn7cUK9S-130">
          <mxGeometry relative="1" as="geometry" />
        </mxCell>
        <mxCell id="CAw-P16dP3qLEn7cUK9S-128" value="33" style="ellipse;whiteSpace=wrap;html=1;aspect=fixed;" vertex="1" parent="1">
          <mxGeometry x="2275" y="2330" width="80" height="80" as="geometry" />
        </mxCell>
        <mxCell id="CAw-P16dP3qLEn7cUK9S-129" value="" style="edgeStyle=orthogonalEdgeStyle;rounded=0;orthogonalLoop=1;jettySize=auto;html=1;" edge="1" parent="1" source="CAw-P16dP3qLEn7cUK9S-130" target="CAw-P16dP3qLEn7cUK9S-132">
          <mxGeometry relative="1" as="geometry" />
        </mxCell>
        <mxCell id="CAw-P16dP3qLEn7cUK9S-130" value="44" style="ellipse;whiteSpace=wrap;html=1;aspect=fixed;" vertex="1" parent="1">
          <mxGeometry x="2450" y="2330" width="80" height="80" as="geometry" />
        </mxCell>
        <mxCell id="CAw-P16dP3qLEn7cUK9S-131" value="" style="edgeStyle=orthogonalEdgeStyle;rounded=0;orthogonalLoop=1;jettySize=auto;html=1;" edge="1" parent="1" source="CAw-P16dP3qLEn7cUK9S-132" target="CAw-P16dP3qLEn7cUK9S-133">
          <mxGeometry relative="1" as="geometry" />
        </mxCell>
        <mxCell id="CAw-P16dP3qLEn7cUK9S-132" value="55" style="ellipse;whiteSpace=wrap;html=1;aspect=fixed;" vertex="1" parent="1">
          <mxGeometry x="2610" y="2330" width="80" height="80" as="geometry" />
        </mxCell>
        <mxCell id="CAw-P16dP3qLEn7cUK9S-138" value="" style="edgeStyle=orthogonalEdgeStyle;rounded=0;orthogonalLoop=1;jettySize=auto;html=1;" edge="1" parent="1" source="CAw-P16dP3qLEn7cUK9S-133" target="CAw-P16dP3qLEn7cUK9S-137">
          <mxGeometry relative="1" as="geometry" />
        </mxCell>
        <mxCell id="CAw-P16dP3qLEn7cUK9S-133" value="66" style="ellipse;whiteSpace=wrap;html=1;aspect=fixed;" vertex="1" parent="1">
          <mxGeometry x="2770" y="2330" width="80" height="80" as="geometry" />
        </mxCell>
        <mxCell id="CAw-P16dP3qLEn7cUK9S-134" value="" style="shape=flexArrow;endArrow=classic;html=1;rounded=0;endWidth=28.96551724137931;endSize=6.06896551724138;width=30.344827586206897;" edge="1" parent="1">
          <mxGeometry width="50" height="50" relative="1" as="geometry">
            <mxPoint x="2004.9999999999998" y="2630" as="sourcePoint" />
            <mxPoint x="2004.9999999999998" y="2560" as="targetPoint" />
          </mxGeometry>
        </mxCell>
        <mxCell id="CAw-P16dP3qLEn7cUK9S-135" value="Head" style="edgeLabel;html=1;align=center;verticalAlign=middle;resizable=0;points=[];" vertex="1" connectable="0" parent="CAw-P16dP3qLEn7cUK9S-134">
          <mxGeometry x="-0.7222" y="3" relative="1" as="geometry">
            <mxPoint as="offset" />
          </mxGeometry>
        </mxCell>
        <mxCell id="CAw-P16dP3qLEn7cUK9S-140" value="" style="edgeStyle=orthogonalEdgeStyle;rounded=0;orthogonalLoop=1;jettySize=auto;html=1;" edge="1" parent="1" source="CAw-P16dP3qLEn7cUK9S-137" target="CAw-P16dP3qLEn7cUK9S-139">
          <mxGeometry relative="1" as="geometry" />
        </mxCell>
        <mxCell id="CAw-P16dP3qLEn7cUK9S-137" value="77" style="ellipse;whiteSpace=wrap;html=1;aspect=fixed;" vertex="1" parent="1">
          <mxGeometry x="2930" y="2330" width="80" height="80" as="geometry" />
        </mxCell>
        <mxCell id="CAw-P16dP3qLEn7cUK9S-142" value="" style="edgeStyle=orthogonalEdgeStyle;rounded=0;orthogonalLoop=1;jettySize=auto;html=1;" edge="1" parent="1" source="CAw-P16dP3qLEn7cUK9S-139" target="CAw-P16dP3qLEn7cUK9S-141">
          <mxGeometry relative="1" as="geometry" />
        </mxCell>
        <mxCell id="CAw-P16dP3qLEn7cUK9S-139" value="88" style="ellipse;whiteSpace=wrap;html=1;aspect=fixed;" vertex="1" parent="1">
          <mxGeometry x="2930" y="2170" width="80" height="80" as="geometry" />
        </mxCell>
        <mxCell id="CAw-P16dP3qLEn7cUK9S-145" value="" style="edgeStyle=orthogonalEdgeStyle;rounded=0;orthogonalLoop=1;jettySize=auto;html=1;" edge="1" parent="1" source="CAw-P16dP3qLEn7cUK9S-141" target="CAw-P16dP3qLEn7cUK9S-144">
          <mxGeometry relative="1" as="geometry" />
        </mxCell>
        <mxCell id="CAw-P16dP3qLEn7cUK9S-141" value="99" style="ellipse;whiteSpace=wrap;html=1;aspect=fixed;" vertex="1" parent="1">
          <mxGeometry x="2770" y="2170" width="80" height="80" as="geometry" />
        </mxCell>
        <mxCell id="CAw-P16dP3qLEn7cUK9S-146" style="edgeStyle=orthogonalEdgeStyle;rounded=0;orthogonalLoop=1;jettySize=auto;html=1;entryX=0.5;entryY=0;entryDx=0;entryDy=0;" edge="1" parent="1" source="CAw-P16dP3qLEn7cUK9S-144" target="CAw-P16dP3qLEn7cUK9S-130">
          <mxGeometry relative="1" as="geometry" />
        </mxCell>
        <mxCell id="CAw-P16dP3qLEn7cUK9S-144" value="100" style="ellipse;whiteSpace=wrap;html=1;aspect=fixed;" vertex="1" parent="1">
          <mxGeometry x="2610" y="2170" width="80" height="80" as="geometry" />
        </mxCell>
        <mxCell id="CAw-P16dP3qLEn7cUK9S-147" value="" style="shape=flexArrow;endArrow=classic;html=1;rounded=0;endWidth=28.96551724137931;endSize=6.06896551724138;width=30.344827586206897;" edge="1" parent="1">
          <mxGeometry width="50" height="50" relative="1" as="geometry">
            <mxPoint x="3000" y="2120.000689655172" as="sourcePoint" />
            <mxPoint x="3000" y="2181.38" as="targetPoint" />
          </mxGeometry>
        </mxCell>
        <mxCell id="CAw-P16dP3qLEn7cUK9S-148" value="Fast" style="edgeLabel;html=1;align=center;verticalAlign=middle;resizable=0;points=[];" vertex="1" connectable="0" parent="CAw-P16dP3qLEn7cUK9S-147">
          <mxGeometry x="-0.7222" y="3" relative="1" as="geometry">
            <mxPoint as="offset" />
          </mxGeometry>
        </mxCell>
        <mxCell id="CAw-P16dP3qLEn7cUK9S-149" value="" style="shape=flexArrow;endArrow=classic;html=1;rounded=0;endWidth=28.96551724137931;endSize=6.06896551724138;width=30.344827586206897;" edge="1" parent="1">
          <mxGeometry width="50" height="50" relative="1" as="geometry">
            <mxPoint x="3009.31" y="2290" as="sourcePoint" />
            <mxPoint x="3009.31" y="2220" as="targetPoint" />
          </mxGeometry>
        </mxCell>
        <mxCell id="CAw-P16dP3qLEn7cUK9S-150" value="Slow" style="edgeLabel;html=1;align=center;verticalAlign=middle;resizable=0;points=[];" vertex="1" connectable="0" parent="CAw-P16dP3qLEn7cUK9S-149">
          <mxGeometry x="-0.7222" y="3" relative="1" as="geometry">
            <mxPoint as="offset" />
          </mxGeometry>
        </mxCell>
      </root>
    </mxGraphModel>
  </diagram>
</mxfile>
